<?xml version="1.0" encoding="utf-8"?>
<!-- Generator: Adobe Illustrator 25.4.5, SVG Export Plug-In . SVG Version: 6.00 Build 0)  -->
<svg version="1.1" xmlns="http://www.w3.org/2000/svg" xmlns:xlink="http://www.w3.org/1999/xlink" x="0px" y="0px"
	 viewBox="0 0 500 500" style="enable-background:new 0 0 500 500;" xml:space="preserve">
<style type="text/css">
	.st0{display:none;}
	.st1{fill:none;stroke:#000000;stroke-width:12;stroke-miterlimit:10;}
</style>
<g id="Layer_1" class="st0">
	
		<image style="display:inline;overflow:visible;" width="2048" height="2048" xlink:href="../../../Downloads/17855160_1671254609566542_4996148227264541125_o.jpg"  transform="matrix(0.2434 0 0 0.2434 0.7553 0)">
	</image>
</g>
<g id="Layer_2">
	<g>
		<path d="M112.7,215.6h9.6l29.6,80.3h-12.1l-22.3-64.8l-22.3,64.8H83.1L112.7,215.6z M96.8,267.6H139v10.7H96.8V267.6z"/>
	</g>
	<g>
		<path d="M259.9,195.1h11.3v80.3h-11.3V195.1z M265.7,233.5h25.7c2.4,0,4.6-0.6,6.4-1.7c1.8-1.1,3.3-2.8,4.3-4.9
			c1-2.1,1.5-4.5,1.5-7.2c0-2.8-0.5-5.2-1.5-7.3s-2.4-3.7-4.3-4.9c-1.8-1.2-4-1.7-6.4-1.7h-25.7v-10.7H291c4.8,0,9,1,12.6,3.1
			c3.6,2,6.5,4.9,8.5,8.6c2,3.7,3,8,3,12.9c0,4.9-1,9.2-3,12.9s-4.8,6.6-8.5,8.6c-3.6,2-7.9,3-12.6,3h-25.3V233.5z"/>
	</g>
	<g>
		<path d="M359.4,169h9.6l29.6,80.3h-12.1l-22.3-64.8l-22.3,64.8h-12.1L359.4,169z M343.4,220.9h42.2v10.7h-42.2V220.9z"/>
	</g>
	<g>
		<path d="M178.7,208.5H190v80.3h-11.3V208.5z M184.4,278.1h45.9v10.7h-45.9V278.1z"/>
	</g>
	<g>
		<path d="M421.7,231.7c-3.5-0.7-6.7-1.8-9.7-3.3c-3-1.5-5.8-3.3-8.4-5.5l7-8.6c3.1,2.7,6.4,4.6,10.1,6c3.7,1.3,7.7,2,12,2
			c5.8,0,10.3-1.1,13.5-3.2c3.2-2.2,4.8-5.2,4.8-9.1v-0.1c0-2.8-0.7-5-2.2-6.7s-3.3-2.9-5.6-3.6c-2.3-0.8-5.3-1.5-8.9-2.2
			c-0.1,0-0.2-0.1-0.4-0.1c-0.1,0-0.2,0-0.4-0.1l-0.8-0.2c-5.4-0.9-9.7-2-13.1-3.1c-3.4-1.2-6.2-3.3-8.6-6.3
			c-2.4-3.1-3.6-7.4-3.6-13.1v-0.1c0-5,1.1-9.2,3.3-12.7c2.2-3.5,5.5-6.2,9.7-8c4.3-1.8,9.4-2.8,15.4-2.8c2.9,0,5.7,0.3,8.5,0.9
			c2.8,0.6,5.5,1.6,8.2,2.8c2.7,1.2,5.4,2.8,8,4.7l-6.4,8.9c-3.1-2.2-6.1-3.9-9.1-5.1c-3-1.1-6.1-1.7-9.1-1.7
			c-5.5,0-9.7,1.1-12.8,3.3c-3,2.2-4.6,5.3-4.6,9.3v0.1c0,2.8,0.8,4.9,2.3,6.5c1.6,1.6,3.5,2.8,5.9,3.5c2.3,0.8,5.6,1.5,9.7,2.3
			c0.1,0,0.3,0.1,0.4,0.1c0.1,0,0.3,0,0.4,0.1c0.2,0,0.4,0.1,0.6,0.1c0.2,0,0.4,0.1,0.6,0.1c4.9,1,8.9,2.2,12.2,3.5
			c3.3,1.4,6,3.6,8.2,6.6c2.2,3,3.3,7.2,3.3,12.5v0.1c0,4.9-1.2,9.1-3.5,12.6c-2.3,3.5-5.7,6.1-10.1,8c-4.4,1.8-9.7,2.7-15.9,2.7
			C428.8,232.8,425.1,232.4,421.7,231.7z"/>
	</g>
	<polyline class="st1" points="313,163.4 53.6,163.4 53.6,338 441.7,338 441.7,281.8 	"/>
</g>
</svg>
