<?xml version="1.0" encoding="utf-8"?>
<!-- Generator: Adobe Illustrator 25.4.5, SVG Export Plug-In . SVG Version: 6.00 Build 0)  -->
<svg version="1.1" id="Layer_1" xmlns="http://www.w3.org/2000/svg" xmlns:xlink="http://www.w3.org/1999/xlink" x="0px" y="0px"
	 viewBox="0 0 252 144" style="enable-background:new 0 0 252 144;" xml:space="preserve">
<style type="text/css">
	.st0{fill:#010101;}
	.st1{fill:none;stroke:#010101;stroke-width:6.1776;stroke-miterlimit:10;}
</style>
<g id="Layer_2_00000072970755859460903180000012473421861032492982_">
	<g>
		<path class="st0" d="M51.9,55.4h4.9l15.2,41.3h-6.2L54.4,63.4L42.9,96.8h-6.2L51.9,55.4z M43.7,82.2h21.7v5.5H43.7V82.2z"/>
	</g>
	<g>
		<path class="st0" d="M127.7,44.9h5.8v41.3h-5.8V44.9z M130.7,64.7h13.2c1.2,0,2.4-0.3,3.3-0.9c0.9-0.6,1.7-1.4,2.2-2.5
			c0.5-1.1,0.8-2.3,0.8-3.7c0-1.4-0.3-2.7-0.8-3.8c-0.5-1.1-1.2-1.9-2.2-2.5c-0.9-0.6-2.1-0.9-3.3-0.9h-13.2v-5.5h13
			c2.5,0,4.6,0.5,6.5,1.6c1.9,1,3.3,2.5,4.4,4.4c1,1.9,1.5,4.1,1.5,6.6c0,2.5-0.5,4.7-1.5,6.6c-1,1.9-2.5,3.4-4.4,4.4
			c-1.9,1-4.1,1.5-6.5,1.5h-13V64.7z"/>
	</g>
	<g>
		<path class="st0" d="M178.9,31.5h4.9l15.2,41.3h-6.2l-11.5-33.4l-11.5,33.4h-6.2L178.9,31.5z M170.7,58.2h21.7v5.5h-21.7V58.2z"/>
	</g>
	<g>
		<path class="st0" d="M85.9,51.8h5.8v41.3h-5.8V51.8z M88.8,87.6h23.6v5.5H88.8V87.6z"/>
	</g>
	<g>
		<path class="st0" d="M211,63.7c-1.8-0.4-3.4-0.9-5-1.7c-1.5-0.8-3-1.7-4.3-2.8l3.6-4.4c1.6,1.4,3.3,2.4,5.2,3.1c1.9,0.7,4,1,6.2,1
			c3,0,5.3-0.6,6.9-1.6c1.6-1.1,2.5-2.7,2.5-4.7v-0.1c0-1.4-0.4-2.6-1.1-3.4c-0.8-0.9-1.7-1.5-2.9-1.9c-1.2-0.4-2.7-0.8-4.6-1.1
			c-0.1,0-0.1-0.1-0.2-0.1c-0.1,0-0.1,0-0.2-0.1l-0.4-0.1c-2.8-0.5-5-1-6.7-1.6c-1.8-0.6-3.2-1.7-4.4-3.2c-1.2-1.6-1.9-3.8-1.9-6.7
			v-0.1c0-2.6,0.6-4.7,1.7-6.5c1.1-1.8,2.8-3.2,5-4.1c2.2-0.9,4.8-1.4,7.9-1.4c1.5,0,2.9,0.2,4.4,0.5c1.4,0.3,2.8,0.8,4.2,1.4
			c1.4,0.6,2.8,1.4,4.1,2.4l-3.3,4.6c-1.6-1.1-3.1-2-4.7-2.6c-1.5-0.6-3.1-0.9-4.7-0.9c-2.8,0-5,0.6-6.6,1.7
			c-1.5,1.1-2.4,2.7-2.4,4.8v0.1c0,1.4,0.4,2.5,1.2,3.3c0.8,0.8,1.8,1.4,3,1.8c1.2,0.4,2.9,0.8,5,1.2c0.1,0,0.2,0.1,0.2,0.1
			s0.2,0,0.2,0.1c0.1,0,0.2,0.1,0.3,0.1s0.2,0.1,0.3,0.1c2.5,0.5,4.6,1.1,6.3,1.8c1.7,0.7,3.1,1.9,4.2,3.4c1.1,1.5,1.7,3.7,1.7,6.4
			v0.1c0,2.5-0.6,4.7-1.8,6.5c-1.2,1.8-2.9,3.1-5.2,4.1c-2.3,0.9-5,1.4-8.2,1.4C214.7,64.3,212.8,64.1,211,63.7z"/>
	</g>
	<polyline class="st1" points="155,28.6 21.5,28.6 21.5,118.5 221.3,118.5 221.3,89.5 	"/>
</g>
</svg>
